<svg width="67" height="22" viewBox="0 0 67 22" fill="none" xmlns="http://www.w3.org/2000/svg">
<path d="M11.1079 0.446289C14.1824 0.457099 17.3561 1.17057 20.6179 2.59751L20.7722 2.66237L20.8273 2.81371V2.82452C21.0918 3.61366 21.3232 4.4028 21.5105 5.19194C21.6979 5.98108 21.8521 6.77022 21.9623 7.55936C22.1166 8.59714 22.2048 9.6241 22.2268 10.6619V11.8726C22.1607 14.4887 21.6979 17.1047 20.8273 19.7208L20.7722 19.8721L20.6179 19.937C17.5324 21.2774 14.4359 21.9369 11.3503 21.9369C11.2732 21.9369 11.1961 21.9369 11.1079 21.9369V21.2018C11.1961 21.2018 11.2732 21.2018 11.3503 21.2018C14.2816 21.2018 17.2238 20.5856 20.1661 19.3316C21.4444 15.44 21.797 11.5483 21.224 7.65665C21.1138 6.89994 20.9595 6.12161 20.7722 5.35409C20.6069 4.64062 20.3975 3.91635 20.1661 3.20288C17.0475 1.86242 14.0281 1.19219 11.1079 1.18138V0.446289ZM2.06069 2.60832C4.94786 1.15976 7.94523 0.446289 11.0418 0.446289C11.0638 0.446289 11.0859 0.446289 11.1079 0.446289V1.18138C11.0859 1.18138 11.0638 1.18138 11.0418 1.18138C8.09951 1.18138 5.26743 1.85161 2.52352 3.20288C1.41053 5.79731 0.782401 8.43499 0.749342 11.1267C0.705263 13.7968 1.26727 16.5318 2.5125 19.3208C5.37763 20.5423 8.24276 21.1693 11.1079 21.2018V21.9369C8.09951 21.9044 5.09112 21.245 2.08273 19.937L1.88437 19.7532C0.606086 16.9426 0.0110197 14.1752 0 11.4618V11.2672C0 11.2132 0 11.17 0 11.1159C0.0330592 8.29445 0.705263 5.51625 1.88437 2.79209L2.06069 2.60832Z" fill="#003399"/>
<path fill-rule="evenodd" clip-rule="evenodd" d="M11.3058 17.1913C11.1515 15.1265 11.2507 12.9753 10.6226 11.0079C10.0385 9.17016 7.82355 8.12157 7.77947 6.10008C7.73539 4.5218 8.95858 2.69488 11.2507 2.69488C13.3995 2.68407 14.7329 4.21911 14.8872 5.92711C15.0745 7.90537 12.6282 9.23502 11.989 11.116C11.3278 13.0402 11.5152 15.1698 11.3058 17.1913Z" fill="#003399"/>
<path fill-rule="evenodd" clip-rule="evenodd" d="M12.1546 16.6941C12.0664 14.8996 12.0664 13.1808 12.5734 11.6566C13.1354 9.92695 14.3035 8.46758 16.0887 7.99193C17.3118 7.66763 19.1081 9.07295 18.8215 10.5107C18.5791 11.6674 17.4 13.0295 15.5046 13.1808C14.623 13.2565 14.2484 13.9483 13.6974 14.3483C16.1658 14.1105 17.7637 13.1592 18.8766 12.1646C19.0419 13.0078 19.1521 14.424 18.4799 14.9104C17.1576 15.8293 15.9344 15.0834 14.3806 15.5158C13.51 15.7644 12.9701 16.3049 12.1546 16.6941Z" fill="#003399"/>
<path fill-rule="evenodd" clip-rule="evenodd" d="M10.4683 16.6941C10.5674 14.8996 10.5564 13.1808 10.0605 11.6566C9.49853 9.92695 8.33044 8.46758 6.54524 7.99193C5.32205 7.66763 3.51481 9.07295 3.81235 10.5107C4.05478 11.6674 5.23389 13.0295 7.12929 13.1808C7.99985 13.2565 8.38554 13.9483 8.93652 14.3483C6.45708 14.1105 4.87024 13.1592 3.75725 12.1646C3.59195 13.0078 3.48175 14.424 4.15396 14.9104C5.47633 15.8293 6.69952 15.0834 8.2533 15.5158C9.12386 15.7644 9.65281 16.3049 10.4683 16.6941Z" fill="#003399"/>
<path fill-rule="evenodd" clip-rule="evenodd" d="M16.3425 19.3641V19.0722L16.5629 19.0181L16.3425 18.6938V18.1533L17.3343 19.5046L16.9817 19.5911L16.7392 19.2559L16.3425 19.3641ZM16.3425 18.1533V18.6938L16.1882 18.4776L16.1221 19.1262L16.3425 19.0722V19.3641L16.0891 19.4181L16.045 19.8181L15.6924 19.9046L15.9238 18.1425L16.2764 18.056L16.3425 18.1533ZM13.0586 20.3045V20.0235H13.1358C13.257 20.0127 13.3341 20.0018 13.3672 19.991C13.4113 19.9802 13.4553 19.9478 13.4774 19.9154C13.5104 19.8721 13.5215 19.8289 13.5215 19.7748C13.5104 19.7208 13.4994 19.6775 13.4664 19.6451C13.4443 19.6127 13.4002 19.5911 13.3562 19.5803C13.3121 19.5694 13.2129 19.5694 13.0586 19.5803V19.2992C13.1468 19.2992 13.2019 19.2884 13.2239 19.2884C13.279 19.2776 13.3231 19.2451 13.3562 19.2127C13.3892 19.1803 13.4002 19.137 13.3892 19.083C13.3892 19.0289 13.3672 18.9857 13.3341 18.9641C13.3121 18.9316 13.268 18.91 13.2019 18.91C13.1799 18.91 13.1358 18.91 13.0586 18.9208V18.6398C13.1799 18.629 13.268 18.629 13.3231 18.6398C13.3892 18.6398 13.4553 18.6614 13.5104 18.6938C13.5655 18.7154 13.6096 18.7587 13.6537 18.8127C13.6868 18.8668 13.7088 18.9316 13.7198 19.0073C13.7308 19.083 13.7088 19.1587 13.6757 19.2235C13.6427 19.2884 13.5876 19.3424 13.5104 19.3857C13.6206 19.4073 13.7088 19.4505 13.7639 19.5154C13.83 19.5803 13.8631 19.6559 13.8741 19.7532C13.8741 19.8289 13.8631 19.9046 13.841 19.9802C13.808 20.0559 13.7639 20.11 13.7088 20.164C13.6427 20.2072 13.5766 20.2397 13.4884 20.2613C13.4333 20.2721 13.29 20.2829 13.0807 20.3045H13.0586ZM15.1414 19.3965L15.483 19.4397C15.4609 19.6235 15.4058 19.7748 15.3067 19.8829C15.2075 19.9802 15.0642 20.0559 14.8879 20.0883C14.6675 20.1208 14.4692 20.0775 14.3039 19.9586C14.1276 19.8289 14.0284 19.6451 13.9733 19.3857C13.9292 19.1154 13.9623 18.8884 14.0835 18.7154C14.1937 18.5425 14.37 18.4344 14.6014 18.3911C14.8108 18.3587 14.9761 18.3911 15.1303 18.4884C15.2185 18.5425 15.2956 18.629 15.3507 18.7587L15.0312 18.8884C14.9981 18.8127 14.943 18.7479 14.8769 18.7154C14.7998 18.6722 14.7226 18.6614 14.6345 18.6722C14.5132 18.6938 14.4251 18.7587 14.359 18.856C14.2928 18.9641 14.2818 19.1046 14.3149 19.2992C14.359 19.5046 14.4251 19.6451 14.5132 19.7208C14.6014 19.7965 14.7116 19.8289 14.8328 19.8073C14.921 19.7856 14.9871 19.7424 15.0422 19.6775C15.0973 19.6127 15.1303 19.5154 15.1414 19.3965ZM13.0586 18.6398V18.9208C13.0146 18.9208 12.9705 18.9316 12.9154 18.9316L12.717 18.9533L12.7501 19.3316L12.9815 19.31C13.0035 19.31 13.0366 19.31 13.0586 19.2992V19.5803C13.0586 19.5803 13.0586 19.5803 13.0476 19.5803L12.7831 19.6019L12.8162 20.0451L13.0586 20.0235V20.3045L12.5076 20.3586L12.3534 18.7046L13.0256 18.6506C13.0366 18.6398 13.0476 18.6398 13.0586 18.6398ZM10.9318 19.7316V19.4505C11.009 19.4505 11.053 19.4397 11.0861 19.4289C11.1302 19.4181 11.1632 19.3857 11.1963 19.3532C11.2183 19.31 11.2294 19.2668 11.2294 19.2235C11.2404 19.1587 11.2183 19.1154 11.1853 19.0722C11.1522 19.0289 11.1081 19.0073 11.053 18.9965C11.02 18.9965 10.9869 18.9857 10.9318 18.9857V18.7046C11.0971 18.7046 11.1963 18.7154 11.2514 18.7371C11.3506 18.7587 11.4277 18.8127 11.4938 18.8992C11.56 18.9857 11.593 19.0938 11.582 19.2235C11.582 19.3208 11.56 19.4073 11.5269 19.483C11.4828 19.5478 11.4387 19.6019 11.3836 19.6451C11.3175 19.6775 11.2624 19.6992 11.1963 19.7208C11.1302 19.7316 11.042 19.7316 10.9318 19.7316ZM10.9318 18.7046V18.9857C10.8988 18.9857 10.8547 18.9857 10.7996 18.9857L10.6343 18.9749V19.4505H10.8106C10.8547 19.4505 10.8988 19.4505 10.9318 19.4505V19.7316C10.9098 19.7316 10.8767 19.7316 10.8437 19.7316H10.6233L10.6123 20.3586L10.2706 20.3478L10.3037 18.6938L10.8437 18.7046C10.8767 18.7046 10.9098 18.7046 10.9318 18.7046ZM7.74712 19.5694V19.0614C7.8463 19.083 7.91242 19.083 7.94548 19.083C7.98956 19.0722 8.02262 19.0614 8.05568 19.0289C8.07772 18.9965 8.09976 18.9641 8.11077 18.91C8.12179 18.856 8.11077 18.8127 8.08874 18.7695C8.0667 18.7263 8.02262 18.7046 7.96752 18.683C7.94548 18.6722 7.86834 18.6614 7.74712 18.6398V18.3587L7.89038 18.3803C8.0667 18.4128 8.18791 18.4452 8.26505 18.4884C8.34219 18.5317 8.39729 18.5965 8.43035 18.683C8.46341 18.7587 8.47443 18.856 8.45239 18.9533C8.43035 19.0722 8.37525 19.1695 8.28709 19.2343C8.20995 19.2992 8.08874 19.3316 7.93446 19.3316C8.00058 19.3857 8.05568 19.4397 8.08874 19.4938C8.13281 19.5586 8.17689 19.6559 8.23199 19.7965L8.37525 20.1532L7.97854 20.0775L7.80222 19.6775C7.78018 19.6451 7.76916 19.6019 7.74712 19.5694ZM8.71686 18.5425L9.04745 18.5749L8.97031 19.4722C8.95929 19.6127 8.95929 19.71 8.95929 19.7424C8.97031 19.8181 9.00337 19.8721 9.04745 19.9154C9.10255 19.9694 9.16867 19.991 9.26785 20.0018C9.36702 20.0127 9.44416 19.991 9.48824 19.9586C9.54334 19.9262 9.5764 19.8829 9.59844 19.8289C9.60946 19.7748 9.62048 19.6775 9.6315 19.5478L9.70864 18.629L10.0502 18.6614L9.97311 19.5262C9.96209 19.7316 9.94005 19.8721 9.90699 19.9478C9.88495 20.0235 9.84087 20.0991 9.79679 20.1424C9.7417 20.1964 9.66456 20.2397 9.5764 20.2613C9.49926 20.2937 9.38906 20.2937 9.25683 20.2829C9.09153 20.2721 8.97031 20.2397 8.89318 20.1964C8.81604 20.1532 8.74992 20.0991 8.70584 20.0451C8.66176 19.9802 8.63972 19.9154 8.6287 19.8505C8.61768 19.7532 8.61768 19.6127 8.6287 19.4289L8.71686 18.5425ZM6.03907 19.0289L6.10518 18.7587L6.82147 18.9425L6.64515 19.5803C6.55699 19.6343 6.4468 19.6667 6.29252 19.6775C6.14926 19.6884 6.01703 19.6775 5.88479 19.6451C5.70847 19.6019 5.56522 19.5262 5.46604 19.4289C5.35584 19.3208 5.28972 19.1911 5.25666 19.0506C5.23462 18.8992 5.23462 18.7479 5.2787 18.5965C5.32278 18.4344 5.39992 18.2938 5.51012 18.1749C5.6093 18.0668 5.74153 18.002 5.89581 17.9695C6.01703 17.9371 6.16028 17.9479 6.31456 17.9912C6.51291 18.0452 6.66719 18.1209 6.75535 18.2398C6.84351 18.3479 6.88758 18.4884 6.87657 18.6398L6.53495 18.6181C6.53495 18.5317 6.51291 18.456 6.45782 18.3911C6.40272 18.3371 6.3366 18.283 6.23742 18.2614C6.09416 18.229 5.97295 18.2398 5.86275 18.3047C5.75255 18.3695 5.67541 18.4992 5.62032 18.6722C5.56522 18.8668 5.57624 19.0181 5.63134 19.137C5.69745 19.2559 5.79663 19.3316 5.92887 19.3641C6.00601 19.3857 6.07212 19.3857 6.14926 19.3857C6.2264 19.3749 6.29252 19.3532 6.35864 19.3316L6.41374 19.1262L6.03907 19.0289ZM7.74712 18.3587L7.1741 18.2614L6.88758 19.8937L7.21818 19.9478L7.33939 19.2668L7.41653 19.2776C7.49367 19.2884 7.54877 19.31 7.58183 19.3208C7.61489 19.3424 7.63693 19.3749 7.66999 19.4073C7.68101 19.4397 7.71406 19.4938 7.74712 19.5694V19.0614C7.71406 19.0614 7.68101 19.0506 7.63693 19.0506L7.39449 19.0073L7.46061 18.5965L7.72508 18.6398C7.7361 18.6398 7.74712 18.6398 7.74712 18.6398V18.3587Z" fill="#003399"/>
<path fill-rule="evenodd" clip-rule="evenodd" d="M60.2671 16.3372V13.2887H61.6336V7.9269L60.2671 10.6078V3.91634H65.6337L67.0002 19.3316H61.6336V16.3372H60.2671ZM60.2671 3.91634V10.6078L58.9007 13.2887H60.2671V16.3372H57.6885L56.6306 19.1694H53.3027V15.6453L57.0163 7.78637H56.2559L58.3717 3.91634H60.2671ZM53.3027 9.05115L54.9666 5.18112L53.3027 4.27307V9.05115ZM40.068 7.57016C40.1451 7.12695 40.1451 6.69454 40.068 6.28376V7.57016ZM53.3027 4.27307V9.05115L53.0823 9.57004C49.7984 7.26748 44.9497 9.36465 44.6742 11.7969C44.3987 14.3373 46.3712 16.3912 51.4073 14.8562L49.6772 19.3965C43.0323 20.1207 40.4536 17.5371 40.068 14.5211V12.8131C40.1671 12.0239 40.3765 11.2564 40.663 10.543C43.9359 2.56507 49.2474 4.35955 51.264 4.20821L51.5615 3.32178L53.3027 4.27307ZM53.3027 15.6453L51.6387 19.1694H53.3027V15.6453ZM34.0953 19.0722C37.6546 18.3803 41.1479 14.186 37.6436 10.8456C39.0101 10.1322 39.8586 8.84576 40.068 7.57016V6.28376C39.8255 4.95411 38.7786 3.87309 36.8061 3.84066L34.0953 3.78661V6.74859H35.2193C36.4204 6.74859 36.2661 9.79705 34.7675 9.79705H34.0953V12.132C35.7152 12.4347 35.1421 14.64 34.0953 15.321V19.0722ZM40.068 12.8131V14.5211C40.0018 13.959 40.0018 13.386 40.068 12.8131ZM29.4009 3.68932L27.2079 7.86204L28.1887 7.78637L25.5439 19.1694H33.1145C33.4451 19.1694 33.7647 19.137 34.0953 19.0722V15.321C33.9079 15.4508 33.6986 15.5264 33.4892 15.5264H30.7673L31.6709 12.0996H33.7096C33.8528 12.0996 33.9851 12.1104 34.0953 12.132V9.79705H32.1999L32.9602 6.74859H34.0953V3.78661L29.4009 3.68932Z" fill="#003399"/>
</svg>
