<svg width="67" height="16" viewBox="0 0 67 16" fill="none" xmlns="http://www.w3.org/2000/svg">
<path fill-rule="evenodd" clip-rule="evenodd" d="M7.723 15.7441C11.9773 15.7441 15.446 12.3115 15.446 8.10373C15.446 3.896 11.9773 0.463379 7.723 0.463379C3.46872 0.463379 0 3.896 0 8.10373C0 12.3125 3.46975 15.7441 7.723 15.7441Z" fill="#00ADD9"/>
<path fill-rule="evenodd" clip-rule="evenodd" d="M3.27192 9.81902C3.36934 11.0709 4.16009 12.0336 5.61929 12.1013C7.02253 12.1669 8.42473 12.1884 9.82694 12.1013C11.1151 12.0223 12.0769 11.0709 12.1743 9.81902C12.2251 9.1772 12.2458 8.53538 12.2396 7.89458C11.9152 6.16289 10.4467 6.10137 10.3088 6.09932H10.3047H10.3006H10.2995H5.36331C5.19024 6.09932 5.04825 5.95886 5.04825 5.78764C5.04825 5.61539 5.1892 5.47595 5.36331 5.47595H10.3151C10.2695 4.31534 8.97297 4.09798 8.3553 4.06107L8.03506 4.0539H8.03402C7.22773 4.04262 6.42351 4.06107 5.61929 4.12362C4.13107 4.23845 3.36934 5.15402 3.27192 6.40588C3.1828 7.54393 3.1828 8.68096 3.27192 9.81902ZM10.7016 9.16079V9.57603C10.7016 9.73085 10.5731 9.85798 10.4166 9.85798C10.2601 9.85798 10.1316 9.73085 10.1316 9.57603V9.15977C10.0062 9.07672 9.92435 8.93933 9.92435 8.78554C9.92435 8.53127 10.1451 8.32622 10.4166 8.32622C10.6882 8.32622 10.9089 8.5323 10.9089 8.78554C10.9089 8.94036 10.827 9.07672 10.7016 9.16079Z" fill="white"/>
<path fill-rule="evenodd" clip-rule="evenodd" d="M54.4069 7.41183L54.4028 8.79186C54.4028 8.79186 53.9261 9.7187 52.2793 9.94631C50.6325 10.1729 50.6314 9.1589 50.7506 8.89746C50.8698 8.63499 51.2574 8.27409 52.6202 8.05366C54.0742 7.81784 54.4069 7.41183 54.4069 7.41183ZM56.347 6.08308C56.347 3.94845 54.2722 2.95394 52.415 3.13028C50.6864 3.29535 49.2344 4.09302 48.7877 5.87802L50.5776 6.31376C51.1434 4.71434 53.2628 4.24578 54.1603 5.38897C54.4007 5.69962 54.3002 6.02361 53.9468 6.20406C53.4203 6.47268 52.415 6.39476 51.3901 6.67261C47.056 7.8486 48.4198 11.7693 52.0108 11.6688C53.1602 11.637 53.9882 11.1172 54.5499 10.5974L54.5686 11.4709H56.346V6.08308H56.347ZM22.4268 5.11009C21.124 5.11009 20.0659 6.15997 20.0659 7.45695C20.0659 8.75289 21.123 9.8038 22.4268 9.8038C23.7315 9.8038 24.7886 8.75392 24.7886 7.45695C24.7886 6.15997 23.7315 5.11009 22.4268 5.11009ZM27.0531 3.3825V10.0858V11.3079C27.0531 14.0802 25.1027 15.7442 22.6237 15.7442C20.9396 15.7442 19.7073 15.3526 18.5114 14.0587L19.9809 12.7515C20.6908 13.5789 21.5448 13.7788 22.5926 13.7788C23.8518 13.7788 24.7876 12.7761 24.7876 11.5468V10.7337C24.059 11.3622 23.1149 11.7416 22.0837 11.7416C19.7778 11.7416 17.9082 9.84481 17.9082 7.50513C17.9082 5.16546 19.7778 3.2687 22.0837 3.2687C23.1149 3.2687 24.059 3.64805 24.7876 4.27654V3.3825H27.0531ZM66.9998 3.25024L64.5726 3.24614L62.1734 8.45044L59.4064 3.24512H56.9719L60.9692 10.6609L58.8571 14.965H61.2915L66.9998 3.25024ZM43.2909 5.11009C44.5936 5.11009 45.6507 6.15997 45.6507 7.45695C45.6507 8.75289 44.5936 9.8038 43.2909 9.8038C41.9861 9.8038 40.929 8.75392 40.929 7.45695C40.929 6.15997 41.9861 5.11009 43.2909 5.11009ZM38.6645 3.3825H40.93V4.27859C41.6586 3.6501 42.6027 3.27075 43.6339 3.27075C45.9398 3.27075 47.8094 5.16751 47.8094 7.50719C47.8094 9.84686 45.9388 11.7436 43.6339 11.7436C42.6027 11.7436 41.6586 11.3643 40.93 10.7358V14.9661H38.6645V3.3825V3.3825ZM32.6246 5.0455C34.0444 5.0455 35.1958 6.14767 35.1958 7.50719C35.1958 8.86773 34.0454 9.9699 32.6246 9.9699C31.2048 9.9699 30.0544 8.86773 30.0544 7.50719C30.0534 6.14767 31.2037 5.0455 32.6246 5.0455ZM32.6246 3.11491C30.0917 3.11491 28.0376 5.08241 28.0376 7.50821C28.0376 9.93504 30.0907 11.9015 32.6246 11.9015C35.1585 11.9015 37.2115 9.93504 37.2115 7.50821C37.2105 5.08138 35.1575 3.11491 32.6246 3.11491Z" fill="black"/>
</svg>
