<svg width="40" height="40" viewBox="0 0 40 40" fill="none" xmlns="http://www.w3.org/2000/svg">
<path opacity="0.4" d="M25.8002 5H12.5335C6.7835 5 3.3335 8.43333 3.3335 14.2V27.45C3.3335 33.2333 6.7835 36.6667 12.5335 36.6667H25.7835C31.5502 36.6667 34.9835 33.2333 34.9835 27.4667V14.2C35.0002 8.43333 31.5502 5 25.8002 5Z" fill="#26282B"/>
<path d="M35.0335 4.96667C32.0501 1.96667 29.1335 1.90001 26.0668 4.96667L24.1835 6.83334C24.0168 7.00001 23.9668 7.23334 24.0335 7.45001C25.2001 11.5333 28.4668 14.8 32.5501 15.9667C32.6001 15.9833 32.6835 15.9833 32.7335 15.9833C32.9001 15.9833 33.0668 15.9167 33.1835 15.8L35.0335 13.9333C36.5501 12.4167 37.3001 10.9667 37.3001 9.48334C37.3001 7.98334 36.5501 6.50001 35.0335 4.96667Z" fill="#26282B"/>
<path d="M29.7667 17.3667C29.3167 17.15 28.8833 16.9333 28.4833 16.6833C28.15 16.4833 27.8167 16.2667 27.5 16.0333C27.2333 15.8667 26.9333 15.6167 26.6333 15.3667C26.6 15.35 26.5 15.2667 26.3667 15.1333C25.85 14.7167 25.3 14.15 24.7833 13.5333C24.75 13.5 24.65 13.4 24.5667 13.25C24.4 13.0667 24.15 12.75 23.9333 12.4C23.75 12.1667 23.5333 11.8333 23.3333 11.4833C23.0833 11.0667 22.8667 10.65 22.6667 10.2167C22.45 9.74999 22.2833 9.31666 22.1333 8.89999L13.1667 17.8667C12.5833 18.45 12.0167 19.55 11.9 20.3667L11.1833 25.3333C11.0333 26.3833 11.3167 27.3667 11.9667 28.0167C12.5167 28.5667 13.2667 28.85 14.1 28.85C14.2833 28.85 14.4667 28.8333 14.65 28.8167L19.6 28.1167C20.4167 28 21.5167 27.45 22.1 26.85L31.0667 17.8833C30.65 17.75 30.2333 17.5667 29.7667 17.3667Z" fill="#26282B"/>
</svg>
