<svg width="40" height="40" viewBox="0 0 40 40" fill="none" xmlns="http://www.w3.org/2000/svg">
<path opacity="0.4" d="M36.6668 13.0167V25.2667C36.1835 25.0333 35.6502 24.8667 35.0502 24.7667L34.5335 24.6833L34.1001 23.7833C33.1835 21.9167 31.6835 20.8333 30.0002 20.8333C28.3168 20.8333 26.8168 21.9167 25.9002 23.7833L25.4501 24.6833L24.9502 24.7667C22.9668 25.1 21.5335 26.2 21.0168 27.7667C20.5168 29.35 21.0335 31.0833 22.4502 32.5167L22.9668 33.0333L22.9168 33.2333C22.5835 34.7167 22.7168 35.85 23.0335 36.6667H13.0168C6.95016 36.6667 3.3335 33.05 3.3335 26.9833V13.0167C3.3335 6.95001 6.95016 3.33334 13.0168 3.33334H26.9835C33.0502 3.33334 36.6668 6.95001 36.6668 13.0167Z" fill="#26282B"/>
<path d="M31.8667 24.9L32.4 25.9833C32.6667 26.5167 33.35 27.0167 33.9167 27.1167L34.6333 27.2333C36.8167 27.6 37.3167 29.2 35.7667 30.7667L35.1 31.4333C34.65 31.8833 34.4167 32.75 34.55 33.3833L34.6333 33.7833C35.2333 36.4167 33.8333 37.4333 31.55 36.05L31.0667 35.75C30.4834 35.4 29.5166 35.4 28.9333 35.75L28.45 36.05C26.15 37.4333 24.7667 36.4167 25.3667 33.7833L25.45 33.3833C25.5833 32.7667 25.35 31.8833 24.9 31.4333L24.2334 30.7667C22.6834 29.1833 23.1833 27.6 25.3667 27.2333L26.0833 27.1167C26.6667 27.0167 27.3333 26.5167 27.6 25.9833L28.1333 24.9C29.1667 22.8167 30.8333 22.8167 31.8667 24.9Z" fill="#26282B"/>
<path fill-rule="evenodd" clip-rule="evenodd" d="M26.8824 13.1954C27.428 13.6183 27.5275 14.4035 27.1045 14.9491L23.2471 19.9253C22.2556 21.1792 20.4276 21.4079 19.1523 20.4224L19.1436 20.4157L16.0993 18.0202C15.9112 17.8773 15.6489 17.9129 15.506 18.0971C15.5059 18.0973 15.5062 18.0969 15.506 18.0971L11.5402 23.2461C11.1189 23.793 10.334 23.8949 9.78711 23.4736C9.24018 23.0524 9.1383 22.2675 9.55956 21.7206L13.5274 16.569C14.5173 15.288 16.3526 15.0565 17.6309 16.0442L17.6396 16.0509L20.6838 18.4465C20.8739 18.5908 21.1417 18.5536 21.2835 18.3778L25.1286 13.4175C25.5516 12.8719 26.3368 12.7724 26.8824 13.1954Z" fill="#26282B"/>
</svg>
