<svg width="40" height="40" viewBox="0 0 40 40" fill="none" xmlns="http://www.w3.org/2000/svg">
<path opacity="0.4" d="M36.4168 19.0167L35.3835 30.3167C35.0335 33.65 33.6668 37.05 26.3335 37.05H13.6335C6.30016 37.05 4.9335 33.65 4.60016 30.3333L3.5835 19.4833C3.60016 19.5 3.61683 19.5167 3.65016 19.5333C4.21683 19.9 4.76683 20.2667 5.36683 20.6C5.60016 20.75 5.85016 20.8833 6.10016 21.0167C7.9835 22.05 10.0002 22.8667 12.0835 23.4333C12.9168 23.6833 13.7668 23.8667 14.6335 24.0167C14.9668 26.6833 17.2502 28.75 20.0002 28.75C22.7835 28.75 25.0835 26.6333 25.3835 23.9167V23.9C26.2335 23.7333 27.0835 23.5167 27.9168 23.2667C30.0002 22.6167 32.0168 21.75 33.9002 20.65C34.0002 20.6 34.0835 20.55 34.1502 20.5C34.9168 20.0833 35.6502 19.6 36.3502 19.1C36.3835 19.0833 36.4002 19.05 36.4168 19.0167Z" fill="#26282B"/>
<path d="M35.1502 11.6333C33.7336 10.0667 31.3836 9.28333 27.9336 9.28333H27.5336V9.21667C27.5336 6.41667 27.5336 2.95 21.2669 2.95H18.7336C12.4669 2.95 12.4669 6.41667 12.4669 9.21667V9.28333H12.0669C8.61689 9.28333 6.25023 10.0667 4.85023 11.6333C3.20023 13.4833 3.25023 15.9333 3.41689 17.6167L3.43356 17.7333L3.58356 19.4833C3.60023 19.5 3.63356 19.5167 3.66689 19.5333C4.23356 19.9 4.78356 20.2667 5.38356 20.6C5.61689 20.75 5.86689 20.8833 6.11689 21.0167C8.00023 22.05 10.0169 22.8667 12.0836 23.4333C12.1336 27.75 15.6669 31.25 20.0002 31.25C24.3669 31.25 27.9169 27.7 27.9169 23.3333V23.2667C30.0169 22.6333 32.0336 21.75 33.9169 20.65C34.0169 20.6 34.0836 20.55 34.1669 20.5C34.9336 20.0833 35.6669 19.6 36.3669 19.1C36.3836 19.0833 36.4169 19.05 36.4336 19.0167L36.5002 18.4167L36.5836 17.6333C36.6002 17.5333 36.6002 17.45 36.6169 17.3333C36.7502 15.6667 36.7169 13.3667 35.1502 11.6333ZM14.8502 9.21667C14.8502 6.38333 14.8502 5.31667 18.7336 5.31667H21.2669C25.1502 5.31667 25.1502 6.38333 25.1502 9.21667V9.28333H14.8502V9.21667ZM20.0002 28.75C17.2502 28.75 14.9669 26.6833 14.6336 24.0167C14.6002 23.8 14.5836 23.5667 14.5836 23.3333C14.5836 20.35 17.0169 17.9167 20.0002 17.9167C22.9836 17.9167 25.4169 20.35 25.4169 23.3333C25.4169 23.5333 25.4002 23.7167 25.3836 23.9V23.9167C25.0836 26.6333 22.7836 28.75 20.0002 28.75Z" fill="#26282B"/>
<path d="M19.0501 26.7167C18.7335 26.7167 18.4168 26.6 18.1668 26.35L16.5168 24.7167C16.0335 24.2333 16.0335 23.4333 16.5168 22.95C17.0001 22.4667 17.8001 22.4667 18.2835 22.95L19.0835 23.75L21.7668 21.2833C22.2668 20.8167 23.0668 20.85 23.5335 21.35C24.0001 21.85 23.9668 22.65 23.4668 23.1167L19.9168 26.4C19.6501 26.6 19.3501 26.7167 19.0501 26.7167Z" fill="#26282B"/>
</svg>
