<svg width="25" height="25" viewBox="0 0 25 25" fill="none" xmlns="http://www.w3.org/2000/svg">
<path d="M12.5 15.5C14.1569 15.5 15.5 14.1569 15.5 12.5C15.5 10.8431 14.1569 9.5 12.5 9.5C10.8431 9.5 9.5 10.8431 9.5 12.5C9.5 14.1569 10.8431 15.5 12.5 15.5Z" stroke="#226597" stroke-width="2"/>
<path d="M20.6885 11.434C21.0765 11.906 21.2705 12.141 21.2705 12.5C21.2705 12.859 21.0765 13.094 20.6885 13.566C19.2685 15.29 16.1365 18.5 12.5005 18.5C8.86447 18.5 5.73247 15.29 4.31247 13.566C3.92447 13.094 3.73047 12.859 3.73047 12.5C3.73047 12.141 3.92447 11.906 4.31247 11.434C5.73247 9.71 8.86447 6.5 12.5005 6.5C16.1365 6.5 19.2685 9.71 20.6885 11.434Z" stroke="#226597" stroke-width="2"/>
</svg>
