<svg width="25" height="25" viewBox="0 0 25 25" fill="none" xmlns="http://www.w3.org/2000/svg">
<path d="M5.5 19.5H6.598L17.296 8.80202L16.198 7.70402L5.5 18.402V19.5ZM4.5 20.5V17.98L17.68 4.78802C17.7833 4.69668 17.8967 4.62602 18.02 4.57602C18.1433 4.52602 18.2723 4.50068 18.407 4.50002C18.5417 4.49935 18.6717 4.52068 18.797 4.56402C18.9237 4.60602 19.0403 4.68201 19.147 4.79201L20.214 5.86602C20.324 5.97202 20.3993 6.08868 20.44 6.21602C20.48 6.34268 20.5 6.46935 20.5 6.59602C20.5 6.73202 20.4773 6.86202 20.432 6.98602C20.386 7.10935 20.3133 7.22235 20.214 7.32502L7.019 20.5H4.5ZM16.738 8.26202L16.198 7.70402L17.296 8.80202L16.738 8.26202Z" fill="#226597"/>
</svg>
