<svg width="40" height="40" viewBox="0 0 40 40" fill="none" xmlns="http://www.w3.org/2000/svg">
<path opacity="0.4" d="M25.0001 37.9167C24.5501 37.9167 24.1335 37.6667 23.9168 37.2833C23.7002 36.9 23.7002 36.4167 23.9335 36.0333L25.6835 33.1167C26.0335 32.5167 26.8002 32.3333 27.4002 32.6833C28.0002 33.0333 28.1835 33.8 27.8335 34.4L27.3835 35.15C31.9835 34.0667 35.4335 29.9333 35.4335 25C35.4335 24.3167 36.0001 23.75 36.6835 23.75C37.3668 23.75 37.9335 24.3167 37.9335 25C37.9168 32.1167 32.1168 37.9167 25.0001 37.9167Z" fill="#26282B"/>
<path opacity="0.4" d="M3.3335 16.25C2.65016 16.25 2.0835 15.6833 2.0835 15C2.0835 7.88333 7.8835 2.08333 15.0002 2.08333C15.4502 2.08333 15.8668 2.33334 16.0835 2.71667C16.3002 3.10001 16.3002 3.58334 16.0668 3.96667L14.3168 6.88334C13.9668 7.48334 13.2002 7.66669 12.6002 7.31669C12.0002 6.96669 11.8168 6.19997 12.1668 5.59997L12.6168 4.84995C8.01684 5.93329 4.56684 10.0667 4.56684 15C4.58351 15.6833 4.01683 16.25 3.3335 16.25Z" fill="#26282B"/>
<path d="M17.7836 23.0833L12.5502 20.2666C12.0002 19.9666 11.3336 19.9666 10.7836 20.2666L5.55025 23.0833C5.16692 23.2833 4.93359 23.7 4.93359 24.15C4.93359 24.6 5.16692 25.0167 5.55025 25.2167L10.7836 28.0333C11.0669 28.1833 11.3669 28.25 11.6669 28.25C11.9669 28.25 12.2669 28.1833 12.5502 28.0333L17.7836 25.2167C18.1669 25.0167 18.4002 24.6 18.4002 24.15C18.4002 23.7 18.1502 23.2999 17.7836 23.0833Z" fill="#26282B"/>
<path d="M9.91688 29.0166L5.05022 26.5834C4.68355 26.4 4.25022 26.4167 3.88356 26.6333C3.53356 26.85 3.31689 27.2334 3.31689 27.6501V32.25C3.31689 33.05 3.75021 33.7666 4.46687 34.1166L9.33356 36.55C9.50023 36.6333 9.68355 36.6834 9.86688 36.6834C10.0835 36.6834 10.3002 36.6167 10.5002 36.5001C10.8502 36.2834 11.0669 35.9 11.0669 35.4833V30.8834C11.0836 30.0834 10.6335 29.3666 9.91688 29.0166Z" fill="#26282B"/>
<path d="M19.4333 26.6333C19.0833 26.4167 18.65 26.4 18.2667 26.5834L13.4 29.0166C12.6833 29.3666 12.25 30.0834 12.25 30.8834V35.4833C12.25 35.9 12.4667 36.2834 12.8167 36.5001C13.0167 36.6167 13.2333 36.6834 13.45 36.6834C13.6333 36.6834 13.8167 36.6333 13.9833 36.55L18.85 34.1166C19.5667 33.7666 20 33.05 20 32.25V27.6501C20 27.2334 19.7833 26.85 19.4333 26.6333Z" fill="#26282B"/>
<path d="M34.4501 6.38335L29.2167 3.56667C28.6667 3.26667 28.0001 3.26667 27.4501 3.56667L22.2168 6.38335C21.8334 6.58335 21.6001 6.99993 21.6001 7.44993C21.6001 7.89993 21.8334 8.31663 22.2168 8.51663L27.4501 11.3333C27.7334 11.4833 28.0334 11.55 28.3334 11.55C28.6334 11.55 28.9334 11.4833 29.2167 11.3333L34.4501 8.51663C34.8334 8.31663 35.0667 7.89993 35.0667 7.44993C35.0667 6.98327 34.8167 6.58335 34.4501 6.38335Z" fill="#26282B"/>
<path d="M26.5834 12.3L21.7167 9.86662C21.3501 9.68329 20.9167 9.7 20.5501 9.91667C20.2001 10.1333 19.9834 10.5166 19.9834 10.9333V15.5333C19.9834 16.3333 20.4167 17.05 21.1334 17.4L26.0001 19.8334C26.1667 19.9167 26.3501 19.9666 26.5334 19.9666C26.7501 19.9666 26.9667 19.9 27.1667 19.7833C27.5167 19.5666 27.7334 19.1833 27.7334 18.7667V14.1666C27.7501 13.3666 27.3001 12.65 26.5834 12.3Z" fill="#26282B"/>
<path d="M36.0998 9.91667C35.7498 9.7 35.3165 9.68329 34.9332 9.86662L30.0665 12.3C29.3498 12.65 28.9165 13.3666 28.9165 14.1666V18.7667C28.9165 19.1833 29.1332 19.5666 29.4832 19.7833C29.6832 19.9 29.8998 19.9666 30.1165 19.9666C30.2998 19.9666 30.4832 19.9167 30.6498 19.8334L35.5165 17.4C36.2332 17.05 36.6665 16.3333 36.6665 15.5333V10.9333C36.6665 10.5166 36.4498 10.1333 36.0998 9.91667Z" fill="#26282B"/>
</svg>
