<svg width="40" height="40" viewBox="0 0 40 40" fill="none" xmlns="http://www.w3.org/2000/svg">
<path opacity="0.4" d="M15 12V27.9833C15 33.3333 18.3333 36.6667 23.6667 36.6667H27.9833C33.3167 36.6667 36.65 33.3333 36.65 28V12C36.6667 6.66668 33.3333 3.33334 28 3.33334H23.6667C18.3333 3.33334 15 6.66668 15 12Z" fill="#26282B"/>
<path d="M20.7168 13.5333L26.3002 19.1167C26.7835 19.6 26.7835 20.4 26.3002 20.8833L20.7168 26.4667C20.2335 26.95 19.4335 26.95 18.9502 26.4667C18.4668 25.9833 18.4668 25.1833 18.9502 24.7L22.4002 21.25H4.5835C3.90016 21.25 3.3335 20.6833 3.3335 20C3.3335 19.3167 3.90016 18.75 4.5835 18.75H22.4002L18.9502 15.3C18.7002 15.05 18.5835 14.7333 18.5835 14.4167C18.5835 14.1 18.7002 13.7833 18.9502 13.5333C19.4335 13.0333 20.2168 13.0333 20.7168 13.5333Z" fill="#26282B"/>
</svg>
