<svg width="40" height="40" viewBox="0 0 40 40" fill="none" xmlns="http://www.w3.org/2000/svg">
<path opacity="0.4" d="M27.0667 6.08325H12.9334C8.81673 6.08325 5.4834 9.43325 5.4834 13.5333V29.2166C5.4834 33.3166 8.8334 36.6666 12.9334 36.6666H27.0501C31.1667 36.6666 34.5001 33.3166 34.5001 29.2166V13.5333C34.5167 9.41658 31.1667 6.08325 27.0667 6.08325Z" fill="#292D32"/>
<path d="M23.9167 3.33325H16.0833C14.35 3.33325 12.9333 4.73325 12.9333 6.46659V8.03325C12.9333 9.76659 14.3333 11.1666 16.0667 11.1666H23.9167C25.65 11.1666 27.05 9.76659 27.05 8.03325V6.46659C27.0667 4.73325 25.65 3.33325 23.9167 3.33325Z" fill="#292D32"/>
<path d="M24.9999 21.5833H13.3333C12.6499 21.5833 12.0833 21.0166 12.0833 20.3333C12.0833 19.6499 12.6499 19.0833 13.3333 19.0833H24.9999C25.6833 19.0833 26.2499 19.6499 26.2499 20.3333C26.2499 21.0166 25.6833 21.5833 24.9999 21.5833Z" fill="#292D32"/>
<path d="M20.6333 28.25H13.3333C12.6499 28.25 12.0833 27.6833 12.0833 27C12.0833 26.3167 12.6499 25.75 13.3333 25.75H20.6333C21.3166 25.75 21.8833 26.3167 21.8833 27C21.8833 27.6833 21.3166 28.25 20.6333 28.25Z" fill="#292D32"/>
</svg>
