<svg width="40" height="40" viewBox="0 0 40 40" fill="none" xmlns="http://www.w3.org/2000/svg">
<path d="M29.5831 11.7499C29.1831 11.6833 28.7664 11.6666 28.3331 11.6666H11.6664C11.1997 11.6666 10.7497 11.7 10.3164 11.7666C10.5497 11.3 10.8831 10.8667 11.2831 10.4667L16.6997 5.03333C18.9831 2.76666 22.6831 2.76666 24.9664 5.03333L27.8831 7.98326C28.9497 9.03326 29.5164 10.3666 29.5831 11.7499Z" fill="#26282B"/>
<path d="M8.33317 25C4.64984 25 1.6665 27.9833 1.6665 31.6667C1.6665 32.9167 2.0165 34.1 2.63317 35.1C3.78317 37.0333 5.89984 38.3333 8.33317 38.3333C10.7665 38.3333 12.8832 37.0333 14.0332 35.1C14.6498 34.1 14.9998 32.9167 14.9998 31.6667C14.9998 27.9833 12.0165 25 8.33317 25ZM10.8165 32.8833H9.58317V34.1833C9.58317 34.8667 9.0165 35.4333 8.33317 35.4333C7.64984 35.4333 7.08317 34.8667 7.08317 34.1833V32.8833H5.84984C5.1665 32.8833 4.59984 32.3166 4.59984 31.6333C4.59984 30.95 5.1665 30.3833 5.84984 30.3833H7.08317V29.2C7.08317 28.5167 7.64984 27.95 8.33317 27.95C9.0165 27.95 9.58317 28.5167 9.58317 29.2V30.3833H10.8165C11.4998 30.3833 12.0665 30.95 12.0665 31.6333C12.0665 32.3166 11.5165 32.8833 10.8165 32.8833Z" fill="#26282B"/>
<path opacity="0.4" d="M36.6668 20V28.3333C36.6668 33.3333 33.3335 36.6667 28.3335 36.6667H12.7168C13.2335 36.2333 13.6835 35.7 14.0335 35.1C14.6502 34.1 15.0002 32.9167 15.0002 31.6667C15.0002 27.9833 12.0168 25 8.3335 25C6.3335 25 4.55016 25.8833 3.3335 27.2666V20C3.3335 15.4667 6.06683 12.3 10.3168 11.7667C10.7502 11.7 11.2002 11.6667 11.6668 11.6667H28.3335C28.7668 11.6667 29.1835 11.6833 29.5835 11.75C33.8835 12.25 36.6668 15.4333 36.6668 20Z" fill="#26282B"/>
<path d="M36.6668 20.8333H31.6668C29.8335 20.8333 28.3335 22.3333 28.3335 24.1667C28.3335 26 29.8335 27.5 31.6668 27.5H36.6668" fill="#26282B"/>
</svg>
