<svg width="42" height="42" viewBox="0 0 42 42" fill="none" xmlns="http://www.w3.org/2000/svg">
<path d="M21 21.875C19.3755 21.875 17.8176 22.5203 16.669 23.669C15.5203 24.8176 14.875 26.3755 14.875 28C14.875 29.6245 15.5203 31.1824 16.669 32.331C17.8176 33.4797 19.3755 34.125 21 34.125C22.6245 34.125 24.1824 33.4797 25.331 32.331C26.4797 31.1824 27.125 29.6245 27.125 28C27.125 26.3755 26.4797 24.8176 25.331 23.669C24.1824 22.5203 22.6245 21.875 21 21.875ZM18.375 28C18.375 27.3038 18.6516 26.6361 19.1438 26.1438C19.6361 25.6516 20.3038 25.375 21 25.375C21.6962 25.375 22.3639 25.6516 22.8562 26.1438C23.3484 26.6361 23.625 27.3038 23.625 28C23.625 28.6962 23.3484 29.3639 22.8562 29.8562C22.3639 30.3484 21.6962 30.625 21 30.625C20.3038 30.625 19.6361 30.3484 19.1438 29.8562C18.6516 29.3639 18.375 28.6962 18.375 28Z" fill="#226597"/>
<path d="M30.6705 8.95299L25.1073 1.15324L4.6515 17.4947L3.5175 17.4825V17.5H2.625V38.5H39.375V17.5H37.6915L34.342 7.70174L30.6705 8.95299ZM33.9937 17.5H16.4448L29.5155 13.0445L32.179 12.1922L33.9937 17.5ZM27.2125 10.1325L13.72 14.7315L24.4055 6.19499L27.2125 10.1325ZM6.125 31.7957V24.2007C6.86381 23.94 7.53489 23.5172 8.08904 22.9634C8.64318 22.4095 9.06635 21.7387 9.3275 21H32.6725C32.9334 21.739 33.3565 22.4102 33.9107 22.9643C34.4648 23.5185 35.136 23.9416 35.875 24.2025V31.7975C35.136 32.0584 34.4648 32.4815 33.9107 33.0356C33.3565 33.5898 32.9334 34.261 32.6725 35H9.331C9.06882 34.2609 8.64494 33.5897 8.09028 33.0354C7.53563 32.481 6.8642 32.0575 6.125 31.7957Z" fill="#226597"/>
</svg>
