<svg width="40" height="40" viewBox="0 0 40 40" fill="none" xmlns="http://www.w3.org/2000/svg">
<path d="M34.4667 23.1832V23.1665C33 21.6165 30.9501 20.6665 28.6667 20.6665C24.2501 20.6665 20.6667 24.2499 20.6667 28.6665C20.6667 30.7165 21.45 32.5832 22.7167 33.9998C24.1834 35.6332 26.3001 36.6665 28.6667 36.6665C33.0834 36.6665 36.6667 33.0832 36.6667 28.6665C36.6667 26.5499 35.8334 24.6165 34.4667 23.1832ZM31.65 30.0165H29.9167V31.8332C29.9167 32.5165 29.3501 33.0832 28.6667 33.0832C27.9834 33.0832 27.4167 32.5165 27.4167 31.8332V30.0165H25.6833C24.9833 30.0165 24.4333 29.4665 24.4333 28.7665C24.4333 28.0832 24.9667 27.5332 25.6667 27.5165H27.4167V25.8499C27.4167 25.8165 27.4167 25.7832 27.4334 25.7499C27.4667 25.1165 28.0167 24.5999 28.6667 24.5999C29.3334 24.5999 29.8834 25.1332 29.9167 25.7999V27.5165H31.65C32.35 27.5165 32.9 28.0832 32.9 28.7665C32.9 29.4665 32.35 30.0165 31.65 30.0165Z" fill="#292D32"/>
<path opacity="0.4" d="M36.6668 14.4834C36.6668 16.4667 36.3501 18.3001 35.8001 20.0001C35.4501 21.1167 35.0002 22.1834 34.4668 23.1667C33.0002 21.6167 30.9502 20.6667 28.6668 20.6667C24.2502 20.6667 20.6669 24.2501 20.6669 28.6668C20.6669 30.7168 21.4502 32.5834 22.7168 34.0001C22.1002 34.2834 21.5335 34.5167 21.0335 34.6834C20.4668 34.8834 19.5335 34.8834 18.9668 34.6834C14.9502 33.3167 6.83353 28.3334 4.2002 20.0001C3.6502 18.3001 3.3335 16.4667 3.3335 14.4834C3.3335 9.33341 7.48349 5.16675 12.6002 5.16675C15.6168 5.16675 18.3168 6.63338 20.0002 8.88338C21.6835 6.63338 24.3835 5.16675 27.4002 5.16675C32.5168 5.16675 36.6668 9.33341 36.6668 14.4834Z" fill="#292D32"/>
</svg>
