<svg width="40" height="40" viewBox="0 0 40 40" fill="none" xmlns="http://www.w3.org/2000/svg">
<path d="M0.446289 19.8743C0.446289 20.6779 1.082 21.1636 1.86915 21.1636C2.35486 21.1636 2.73986 20.9293 3.07486 20.5943L19.4141 5.71143C19.5977 5.52714 19.7991 5.46 20.0163 5.46C20.2177 5.46 20.402 5.52714 20.602 5.71143L36.9249 20.5943C37.2763 20.9293 37.6613 21.1636 38.1306 21.1636C38.917 21.1636 39.5534 20.6779 39.5534 19.8743C39.5534 19.3721 39.3691 19.0543 39.0513 18.7693L33.2584 13.4964V3.60214C33.2584 2.86571 32.7899 2.39714 32.0534 2.39714H29.8606C29.1406 2.39714 28.6384 2.86571 28.6384 3.60214V9.29428L22.0084 3.23357C21.4227 2.68143 20.7027 2.41428 19.9999 2.41428C19.2963 2.41428 18.5934 2.68214 17.9906 3.23428L0.948432 18.7693C0.647003 19.0543 0.446289 19.3721 0.446289 19.8743ZM5.23415 33.92C5.23415 36.2471 6.64057 37.6036 9.00058 37.6036H15.7813V25.7C15.7813 24.93 16.2999 24.4286 17.0699 24.4286H22.9799C23.7499 24.4286 24.252 24.93 24.252 25.7V37.6036H31.0156C33.3756 37.6036 34.7656 36.2471 34.7656 33.92V21.6657L20.552 8.85857C20.3677 8.69143 20.167 8.60785 19.9663 8.60785C19.782 8.60785 19.5977 8.69143 19.397 8.87571L5.23415 21.7493V33.92Z" fill="#26282B"/>
</svg>
