<svg width="42" height="42" viewBox="0 0 42 42" fill="none" xmlns="http://www.w3.org/2000/svg">
<path d="M15.0938 7.875C13.8769 7.87984 12.7113 8.36538 11.8508 9.22582C10.9904 10.0863 10.5048 11.2519 10.5 12.4688C10.5 14.9914 12.5711 17.0625 15.0938 17.0625C17.6164 17.0625 19.6875 14.9914 19.6875 12.4688C19.6875 9.94613 17.6164 7.875 15.0938 7.875ZM26.9062 7.875C25.6894 7.87984 24.5238 8.36538 23.6633 9.22582C22.8029 10.0863 22.3173 11.2519 22.3125 12.4688C22.3125 14.9914 24.3836 17.0625 26.9062 17.0625C29.4289 17.0625 31.5 14.9914 31.5 12.4688C31.5 9.94613 29.4289 7.875 26.9062 7.875ZM15.0938 10.5C16.1962 10.5 17.0625 11.3663 17.0625 12.4688C17.0625 13.5712 16.1962 14.4375 15.0938 14.4375C13.9913 14.4375 13.125 13.5712 13.125 12.4688C13.125 11.3663 13.9913 10.5 15.0938 10.5ZM26.9062 10.5C28.0088 10.5 28.875 11.3663 28.875 12.4688C28.875 13.5712 28.0088 14.4375 26.9062 14.4375C25.8037 14.4375 24.9375 13.5712 24.9375 12.4688C24.9375 11.3663 25.8037 10.5 26.9062 10.5ZM9.1875 15.75C6.3 15.75 3.9375 18.1125 3.9375 21C3.9375 22.4608 4.56356 23.7786 5.53744 24.7327C4.64437 25.3359 3.91221 26.1482 3.40462 27.0989C2.89703 28.0495 2.6294 29.1098 2.625 30.1875H5.25C5.25 27.9983 6.99825 26.25 9.1875 26.25C11.3767 26.25 13.125 27.9983 13.125 30.1875H15.75C15.7456 29.1098 15.478 28.0495 14.9704 27.0989C14.4628 26.1482 13.7306 25.3359 12.8376 24.7327C13.8114 23.7786 14.4375 22.4621 14.4375 21C14.4375 18.1125 12.075 15.75 9.1875 15.75ZM15.75 30.1875C14.9297 31.2847 14.4375 32.6642 14.4375 34.125H17.0625C17.0625 31.9358 18.8108 30.1875 21 30.1875C23.1892 30.1875 24.9375 31.9358 24.9375 34.125H27.5625C27.5606 32.7054 27.1003 31.3243 26.25 30.1875C25.8037 29.5929 25.2656 29.085 24.6501 28.6702C25.6239 27.7161 26.25 26.3996 26.25 24.9375C26.25 22.05 23.8875 19.6875 21 19.6875C18.1125 19.6875 15.75 22.05 15.75 24.9375C15.75 26.3983 16.3761 27.7161 17.3499 28.6702C16.7349 29.0821 16.1939 29.5951 15.75 30.1875ZM26.25 30.1875H28.875C28.875 27.9983 30.6233 26.25 32.8125 26.25C35.0018 26.25 36.75 27.9983 36.75 30.1875H39.375C39.3706 29.1098 39.103 28.0495 38.5954 27.0989C38.0878 26.1482 37.3556 25.3359 36.4626 24.7327C37.4364 23.7786 38.0625 22.4621 38.0625 21C38.0625 18.1125 35.7 15.75 32.8125 15.75C29.925 15.75 27.5625 18.1125 27.5625 21C27.5625 22.4608 28.1886 23.7786 29.1624 24.7327C28.2694 25.3359 27.5372 26.1482 27.0296 27.0989C26.522 28.0495 26.2544 29.1098 26.25 30.1875ZM9.1875 18.375C10.6536 18.375 11.8125 19.5339 11.8125 21C11.8125 22.4661 10.6536 23.625 9.1875 23.625C7.72144 23.625 6.5625 22.4661 6.5625 21C6.5625 19.5339 7.72144 18.375 9.1875 18.375ZM32.8125 18.375C34.2786 18.375 35.4375 19.5339 35.4375 21C35.4375 22.4661 34.2786 23.625 32.8125 23.625C31.3464 23.625 30.1875 22.4661 30.1875 21C30.1875 19.5339 31.3464 18.375 32.8125 18.375ZM21 22.3125C22.4661 22.3125 23.625 23.4714 23.625 24.9375C23.625 26.4036 22.4661 27.5625 21 27.5625C19.5339 27.5625 18.375 26.4036 18.375 24.9375C18.375 23.4714 19.5339 22.3125 21 22.3125Z" fill="#226597"/>
</svg>
